<?xml version="1.0" encoding="utf-8"?>
<!-- Generator: Adobe Illustrator 27.5.0, SVG Export Plug-In . SVG Version: 6.00 Build 0)  -->
<svg version="1.1" id="Layer_1" xmlns="http://www.w3.org/2000/svg" xmlns:xlink="http://www.w3.org/1999/xlink" x="0px" y="0px"
	 viewBox="0 0 2089 2000" style="enable-background:new 0 0 2089 2000;" xml:space="preserve">
<rect x="0" y="0" style="fill:#FFFFFF;" width="2089" height="2000"/>
<g>
	<g>
		<g>
			<g>
				<g>
					<path style="fill:#3C8F7C;" d="M1587.511,1889.766c0,0,176.551-98.07,205.385-146.121
						c28.834-48.053-17.032-48.447-17.032-48.447s76.891-82.478,63.911-114.977c-12.979-32.5-53.316-0.134-53.316-0.134
						s46.251-118.106,21.204-128.523c-46.652-19.404-104.521,108.068-104.521,108.068s11.099-54.689-20.211-51.395
						c-47.218,4.966-39.275,127.055-39.275,127.055s-7.644-46.587-35.436-29.971
						C1558.355,1635.133,1587.511,1889.766,1587.511,1889.766z"/>
				</g>
				<path style="fill:#50BFA5;" d="M1596.992,1586.926c21.678-13.457,45.645,21.599,45.645,21.599s-6.924-95.322,40.294-100.288
					c31.31-3.295,20.211,51.395,20.211,51.395s57.868-127.473,104.521-108.068l-220.457,436.228
					C1584.049,1858.236,1554.047,1613.586,1596.992,1586.926z"/>
			</g>
			<g>
				<g>
					<path style="fill:#3C8F7C;" d="M1592.241,1890.642c0,0,148.869,11.127,186.379-7.127c37.511-18.254,9.063-37.139,9.063-37.139
						s81.474-20.201,86.584-45.746c5.11-25.545-32.74-21.674-32.74-21.674s76.379-54.947,64.989-71.622
						c-21.214-31.061-109.105,24.934-109.105,24.934s29.145-29.601,8.277-40.269c-31.47-16.088-76.126,63.289-76.126,63.289
						s2.079-19.127-22.008-20.057C1664.337,1733.566,1592.241,1890.642,1592.241,1890.642z"/>
				</g>
				<path style="fill:#50BFA5;" d="M1705.906,1721.488c24.087,0.93,23.655,33.801,23.655,33.801s44.833-93.696,76.302-77.607
					c20.868,10.668-1.268,50.148-1.268,50.148s80.706-51.556,101.92-20.495l-314.765,182.509
					C1601.792,1870.127,1665.539,1719.932,1705.906,1721.488z"/>
			</g>
		</g>
		<path style="fill:#9BC1F9;" d="M1518.893,395.792l-37.268,53.991c-0.4,3.403,2.135,5.454,8.369,10.594
			c11.15,9.194,22.307,18.391,33.126,27.965c1.702,1.506,2.688,5.235,2.208,7.565c-2.858,13.854-6.556,27.539-9.273,41.418
			c-0.841,4.302-1.954,6.374-6.431,7.513c-17.893,4.552-35.658,9.605-53.274,14.42c-1.392,16.777,5.628,57.759,12.263,70.726
			c17.526-1.518,35.457-2.798,53.31-4.779c5.557-0.617,7.9,0.602,10.698,5.773c6.491,11.994,14.099,23.433,21.892,34.653
			c3.156,4.544,4.578,7.766,1.366,13.084c-8.325,13.783-15.812,28.071-23.904,41.999c-2.176,3.743-2.221,6.508,1.356,9.02
			c16.836,11.819,33.687,23.614,50.526,35.427c4.139,2.904,6.066-0.648,8.087-2.986c10.228-11.829,20.525-23.61,30.347-35.772
			c3.688-4.566,6.932-5.415,12.653-3.767c15.141,4.362,30.565,7.737,47.053,11.794c4.868,17.552,10.244,36.93,15.769,56.849
			c24.042-0.191,47.081-4.655,70.202-12.927c-1.654-19.997-3.309-40-4.767-57.628c15.629-10.48,30.319-19.866,44.416-30.073
			c4.081-2.955,6.506-2.875,10.456-0.57c13.713,7.999,27.673,15.57,41.442,23.474c2.975,1.709,5.28,2.588,8.042-0.375
			c13.957-14.974,26.464-30.92,35.428-49.504c1.998-4.142,0.994-6.355-2.102-8.982c-12.464-10.574-24.726-21.387-37.231-31.908
			c-3.03-2.55-4.014-4.5-2.958-8.858c3.66-15.116,6.673-30.409,9.287-45.745c0.668-3.917,2.326-4.99,5.521-5.876
			c17.798-4.937,35.56-10.004,53.79-15.156c-0.723-23.836-4.037-46.814-12.068-69.548c-20.398,1.687-40.664,3.363-60.057,4.966
			c-10.556-16.595-20.775-32.664-31.711-49.857c6.898-12.345,14.95-26.508,22.762-40.804c6.41-11.733,7.672-9.511-3.187-18.83
			c-1.036-0.889-1.75-2.155-2.613-3.245c-10.143-7.001-20.285-14.002-30.427-21.003c-2.529-1.144-5.319-1.923-7.539-3.504
			c-5.772-4.11-9.865-3.815-14.647,2.245c-9.964,12.63-20.727,24.641-31.449,36.649c-1.404,1.573-4.691,2.625-6.788,2.231
			c-13.68-2.574-27.174-6.342-40.935-8.191c-6.732-0.905-8.849-3.507-10.39-9.48c-4.369-16.94-9.436-33.702-14.709-52.225
			c-23.558,4.083-46.538,8.067-69.778,12.096c0.285,4.464,0.407,7.036,0.619,9.6c1.311,15.815,2.479,31.646,4.072,47.433
			c0.451,4.483-1.137,6.409-4.855,8.738c-12.782,8.004-25.049,16.827-37.78,24.919c-1.974,1.256-5.876,1.326-7.98,0.22
			c-11.522-6.056-22.708-12.748-34.113-19.035C1526.491,395.439,1523.047,393.583,1518.893,395.792z M1606.382,494.059
			c33.313-48.259,99.438-60.377,147.697-27.065l0,0c48.259,33.311,60.378,99.438,27.065,147.697l0,0
			c-33.312,48.26-99.437,60.377-147.697,27.066l0,0C1585.188,608.445,1573.07,542.319,1606.382,494.059L1606.382,494.059z"/>
		<g>
			<path style="fill:#13375B;" d="M1611.564,503.443L1611.564,503.443c-0.057-0.021-0.116-0.039-0.174-0.06
				c-1.629-0.585-3.287-1.106-4.963-1.589c-0.571-0.165-1.14-0.335-1.717-0.488c-0.607-0.16-1.22-0.302-1.831-0.448
				c-0.621-0.149-1.242-0.297-1.869-0.432c-0.591-0.126-1.186-0.241-1.782-0.355c-0.667-0.127-1.336-0.248-2.01-0.358
				c-0.571-0.094-1.144-0.184-1.719-0.266c-0.728-0.104-1.459-0.194-2.191-0.278c-0.533-0.061-1.064-0.126-1.602-0.177
				c-0.837-0.079-1.68-0.138-2.524-0.191c-0.444-0.028-0.886-0.067-1.332-0.088c-1.298-0.062-2.602-0.099-3.915-0.099H981.866
				c-1.401,0-2.794,0.035-4.178,0.105c-2.768,0.141-5.498,0.419-8.186,0.83c-1.343,0.205-2.676,0.443-3.998,0.714
				c-34.352,7.029-60.802,35.755-64.404,71.235c-0.278,2.729-0.42,5.498-0.42,8.301v1001.889v228.575
				c0,35.137,22.323,65.053,53.558,76.356v0.001c0.138,0.05,0.279,0.093,0.417,0.142c1.549,0.551,3.123,1.047,4.713,1.506
				c0.574,0.164,1.144,0.335,1.723,0.488c0.607,0.16,1.22,0.302,1.832,0.448c0.622,0.148,1.243,0.298,1.869,0.432
				c0.591,0.126,1.186,0.241,1.781,0.354c0.668,0.128,1.338,0.248,2.011,0.359c0.571,0.094,1.144,0.184,1.719,0.266
				c0.727,0.104,1.458,0.194,2.191,0.279c0.533,0.06,1.065,0.125,1.601,0.176c0.837,0.08,1.68,0.138,2.525,0.193
				c0.444,0.027,0.886,0.066,1.332,0.088c1.297,0.061,2.602,0.098,3.914,0.098h602.069c2.804,0,5.572-0.142,8.302-0.418
				c38.209-3.882,68.585-34.258,72.465-72.467c0.277-2.729,0.419-5.498,0.419-8.301V808.375V579.799
				C1665.121,544.664,1642.799,514.747,1611.564,503.443z"/>
			<rect x="929.591" y="605.036" style="fill:#D4EEFC;" width="685.729" height="1171.536"/>
			<g>
				<g>
					<g>
						<path style="fill:#F7A491;" d="M1227.559,1141.793l-49.965-52.713c0,0-53.482,29.412-115.829,57.516
							c-17.14-29.832-45.114-127.961-46.616-132.641c-1.509-4.696-40.296-8.477-36.007,19.324
							c4.286,27.774,16.024,176.386,46.316,188.316C1051.907,1232.016,1227.559,1141.793,1227.559,1141.793z"/>
						<path style="fill:#F7A491;" d="M957.379,965.955c4.882-7.671,13.691-8.883,17.434-11.855
							c8.884-7.054,13.221-3.703,14.645-5.58c2.557-3.37-17.88-39.364-8.756-47.172c4.878-4.173,32.17,58.611,36.883,77.508
							c2.121,8.504-3.946,30.404-2.438,35.099c0.249,0.77,1.212,4.066,2.724,9.172c-12.179,1.107-28.407,3.273-39.195,7.398
							c-3.862-19.94-10.181-23.793-17.81-37.607C952.266,977.345,955.682,968.622,957.379,965.955z"/>
						<path style="fill:#13375B;" d="M1187.703,943.794c6.204-29.301,12.608-58.707,41.724-79.813
							c23.561-17.08,48.88-21.959,75.723-12.224c76.053,27.583,35.146,87.939,129.523,152.267
							c29.326,19.988,40.458,26.957,61.504,53.595c29.458,37.283,45.559,87.312,30.751,128.493
							c-30.623,85.172-125.51,109.777-175.15,91.719c-92.394-33.612-169.367-150.787-174.483-182.763
							C1171.82,1060.846,1183.709,962.656,1187.703,943.794z"/>
						<path style="fill:#FFFFFF;" d="M1172.949,1174.91c4.611-2.132,5.419-1.35,2.426,5.297
							c-16.933,37.592,2.966,62.727,7.68,70.508c2.611,4.311,1.509,87.29,0.267,150.775
							c-6.054,55.249-15.474,175.213-13.381,375.082h263.681c-8.071-81.724-4.006-198.601-12.415-241.01
							c-9.046-45.616-56.511-120.918-70.431-142.313c-0.811-21.324,2.144-39.494,4.222-52.098
							c6.161-40.056,15.354-78.965,27.901-117.506c8.306-25.512,22.551,19.237,30.432,41.674
							c18.327-7.381,69.512-30.377,69.512-30.377c-67.238-181.512-99.962-166.602-178.044-167.715
							c-97.739-1.455-87.521-13.409-217.746,60.668l23.041,72.869C1110.093,1200.766,1150.588,1185.248,1172.949,1174.91z"/>
						<path style="fill:#F7A491;" d="M1270.704,1467.172c-0.92,0.126-5.067-0.419-8.461-0.335c-4.692,0.083-8.798,0.797-8.798,0.797
							s-1.843-1.593-5.363-3.226c-1.465-0.671-3.853-0.922-5.486-1.676c-1.675-0.797-3.1-2.221-4.692-2.933
							c-4.147-1.801-7.958-2.221-9.216-0.043c-1.048,1.801,22.035,15.919,22.035,15.919c21.365,0.126,43.736,11.018,93.251-21.281
							c28.277-12.357,165.599-80.181,168.364-94.967c1.55-8.296-19.521-72.517-36.739-121.279
							c-13.279,5.949-41.515,18.518-57.308,25.136c14.494,30.706,31.586,71.425,29.785,76.411c-0.461,1.299-2.18,3.645-95.012,64.43
							c-2.345,1.508-4.733,3.1-7.163,4.691c-6.536,4.273-13.53,8.841-20.945,13.657l-26.476-2.765c0,0-41.935,2.891-43.191,7.666
							c-0.545,2.178,2.933,3.269,7.206,3.896h0.126c0.627,0.084,1.256,0.166,1.883,0.251c0.043,0,0.086,0,0.086,0
							c4.608,0.545,9.468,0.629,10.64,1.048c1.341,0.46,4.021,1.506,6.326,3.1c-26.142,10.683-24.13,6.87-32.802,6.326
							c-2.178-0.167-4.481,0.46-6.534,0.293c-3.521-0.293-6.326-2.389-9.05-2.556c-3.979-0.209-7.205,1.634-7.918,2.387
							c-0.921,0.923,0.797,2.264,4.147,3.771c20.192,8.756,36.907,5.405,42.27,6.703c3.604,0.881-2.974,2.221-13.237,1.132
							c-2.556-0.251-5.907,0.669-9.3-0.126c-2.263-0.503-4.317-1.969-6.536-2.514c-2.053-0.503-4.148-0.462-5.864-0.796
							c-2.263-0.419-5.405-2.136-7.206-2.346c-6.702-0.755-9.971,0.419-10.726,1.048c-1.549,1.381,28.906,13.068,28.906,13.068
							s20.989,3.018,25.68,3.018C1273.386,1465.078,1276.192,1466.334,1270.704,1467.172z"/>
						<path style="fill:#24B390;" d="M1302.249,1203.162l36.457,2.807c9.487,0.73,17.77-6.367,18.5-15.854l0,0
							c0.73-9.486-6.368-17.77-15.854-18.5l-36.457-2.807c-9.486-0.731-17.769,6.367-18.499,15.854l0,0
							C1285.665,1194.148,1292.763,1202.431,1302.249,1203.162z"/>
						<g>
							<path style="fill:#184655;" d="M1323.915,1215.892c0.076-0.315,7.521-31.884,9.107-66.24
								c2.183-47.219-7.215-77.031-27.931-88.611c-16.281-9.1-34.443-9.916-49.827-2.235c-19.088,9.529-23.51,31.446-27.434,52.001
								c-4.906,25.66-4.175,63.561-4.728,87.883l7.698,0.174c0.55-24.191-0.167-61.715,4.592-86.611
								c3.404-17.844,7.043-38.437,23.312-46.559c13.26-6.619,28.4-5.886,42.631,2.069c35.316,19.74,24.354,107.599,15.09,146.345
								L1323.915,1215.892z"/>
						</g>
						<g>
							<path style="fill:#184655;" d="M1259.771,1310.318c6.36-21.6,21.859-83.897,8.691-102.734
								c-13.721-18.877-50.663-18.623-68.094-12.97c-15.113,4.542-18.076,25.956-18.412,41.659
								c-0.354,19.441,3.848,51.429,6.856,70.469l6.45-0.882c-1.971-18.296-3.543-34.358-4.432-52.164
								c-0.637-13.575-0.946-45.666,12.051-49.924c14.17-4.588,43.476-4.329,55.249,7.002c1.498,1.438,2.612,2.968,3.116,3.903
								c8.061,14.911-4.474,77.409-7.862,94.008L1259.771,1310.318z"/>
						</g>
						<path style="fill:#184655;" d="M1300.189,1226.641c0,10.327,8.044,18.699,17.966,18.699c9.921,0,17.964-8.372,17.964-18.699
							c0-10.326-8.043-18.698-17.964-18.698C1308.233,1207.942,1300.189,1216.314,1300.189,1226.641z"/>
						<path style="fill:#9BC1F9;" d="M1309.26,1226.641c0,5.113,3.981,9.258,8.896,9.258c4.911,0,8.893-4.145,8.893-9.258
							s-3.981-9.258-8.893-9.258C1313.241,1217.383,1309.26,1221.527,1309.26,1226.641z"/>
						<path style="fill:#24B390;" d="M1247.704,1304.95c-2.311,6.188,2.244,12.638,8.852,12.525c3.69-0.062,7.069-2.446,8.362-5.903
							c2.316-6.191-2.246-12.649-8.857-12.532C1252.371,1299.105,1248.995,1301.492,1247.704,1304.95z"/>
						<path style="fill:#24B390;" d="M1182.305,1303.271c-2.316,6.19,2.237,12.643,8.847,12.533
							c3.691-0.062,7.071-2.447,8.364-5.905c2.313-6.19-2.246-12.643-8.852-12.531
							C1186.975,1297.43,1183.598,1299.814,1182.305,1303.271z"/>
						<path style="fill:#F7A491;" d="M1295.184,995.375c0,0,5.955,48.08,9.464,64.772c3.672,17.467,9.197,72.472-27.021,81.402
							c-36.218,8.932-25.025-59.85-25.624-77.608c-0.598-17.759-10.862-79.687-10.862-79.687L1295.184,995.375z"/>
						<path style="fill:#F47458;" d="M1297.154,1010.717c-0.37,0.22-0.713,0.457-1.091,0.674
							c-20.017,11.477-37.44,9.666-50.517,0.734c-2.335-15.372-4.407-27.872-4.407-27.872l54.042,11.121
							C1295.182,995.375,1295.977,1001.781,1297.154,1010.717z"/>
						<path style="fill:#F7A491;" d="M1284.294,870.167c0,0,21.225,5.967,33.461,27.042c12.239,21.078,18.343,81.609-26.705,107.438
							c-45.05,25.828-77.026-15.554-75.663-54.269C1216.749,911.664,1227.535,860.452,1284.294,870.167z"/>
						<path style="fill:#F7A491;" d="M1205.434,933.764c-0.5,10.063,3.805,18.458,9.616,18.752
							c5.809,0.294,10.925-7.625,11.426-17.688c0.5-10.063-3.805-18.458-9.616-18.752
							C1211.049,915.782,1205.934,923.702,1205.434,933.764z"/>
						<path style="fill:#13375B;" d="M1277.916,868.573c0,0,24.286,63.309,48.052,70.057c23.769,6.749,21.87,37.89,21.87,37.89
							s3.043-71.983-18.667-89.628C1307.459,869.247,1277.916,868.573,1277.916,868.573z"/>
						<path style="fill:#FFFFFF;" d="M1310.822,946.435l-4.969,1.116c-26.802,6.029-82.201-10.741-82.201-10.741
							s2.567,30.798-3.849,40.88c0,0,7.911,27.317,33.208,34.833c25.301,7.517,60.834-24.109,60.834-24.109
							S1303.672,965.134,1310.822,946.435z"/>
						<g>
							<path style="fill:#FFFFFF;" d="M1311.979,989.433c12.708-4.621,27.135-54.65,14.88-52.977
								c-4.094,0.559-9.308,3.767-15.497,9.535c-2.497,2.325-4.509,4.479-5.759,5.876c-2.618,2.927-2.618,3.198-2.618,3.688h2.75
								c0,0.365-0.147,0.608-0.164,0.635c1.076-1.712,13.667-15.919,21.66-17.01c0.242-0.032,0.815-0.113,1.234,1.576
								c2.301,9.319-7.982,42.658-17.427,46.092L1311.979,989.433z"/>
						</g>
						<path style="fill:#FFFFFF;" d="M1219.756,915.82l6.372,22.915l-2.2,1.925l-7.068-24.583
							C1216.859,916.077,1218.062,915.591,1219.756,915.82z"/>
						<path style="fill:#F7A491;" d="M1315.777,951.018c-3.668,9.896-1.264,19.945,5.368,22.444
							c6.63,2.499,14.976-3.497,18.642-13.393s1.262-19.945-5.368-22.445C1327.788,935.126,1319.441,941.122,1315.777,951.018z"/>
					</g>
				</g>
			</g>
			<path style="opacity:0.6;fill:#FFFFFF;" d="M1372.661,565.552h-195.298c-2.715,0-4.916-2.2-4.916-4.914v-4.85
				c0-2.715,2.201-4.916,4.916-4.916h195.298c2.715,0,4.916,2.201,4.916,4.916v4.849
				C1377.577,563.352,1375.376,565.552,1372.661,565.552z"/>
			<rect x="929.591" y="1727.418" style="fill:#A4DEE3;" width="685.729" height="49.154"/>
			<rect x="929.591" y="605.036" style="opacity:0.2;fill:#3CB4C5;" width="685.729" height="62.171"/>
		</g>
		<path style="fill:#CAE1F9;" d="M1266.825,297.616l10.867,35.058c1.358,1.353,3.138,0.946,7.554-0.019
			c7.898-1.728,15.801-3.456,23.752-4.905c1.252-0.228,3.233,0.627,4.092,1.644c5.105,6.047,9.849,12.403,15.014,18.396
			c1.601,1.857,2.128,3.063,1.081,5.425c-4.183,9.445-8.101,19.006-12.072,28.42c6.899,6.412,27.354,17.491,35.351,19.054
			c5.391-8.234,11.026-16.564,16.326-25.102c1.649-2.657,2.995-3.267,6.237-2.711c7.521,1.291,15.182,1.898,22.811,2.349
			c3.09,0.183,4.999,0.671,6.229,3.921c3.186,8.427,6.882,16.659,10.211,25.034c0.895,2.25,2.095,3.226,4.438,2.521
			c11.019-3.32,22.031-6.656,33.049-9.979c2.709-0.817,1.813-2.893,1.482-4.59c-1.668-8.588-3.291-17.19-5.245-25.715
			c-0.734-3.201,0.014-4.921,2.717-6.868c7.152-5.152,13.97-10.77,21.453-16.621c9.404,3.925,19.786,8.259,30.458,12.714
			c8.228-10.641,14.228-22.318,18.582-35.349c-9.368-6.185-18.74-12.372-26.999-17.824c0.794-10.498,1.743-20.205,2.126-29.934
			c0.11-2.816,0.984-3.855,3.364-4.797c8.258-3.267,16.414-6.791,24.65-10.115c1.781-0.718,2.965-1.428,2.615-3.667
			c-1.762-11.315-4.452-22.33-9.528-32.697c-1.132-2.311-2.452-2.635-4.679-2.181c-8.959,1.828-17.955,3.484-26.906,5.348
			c-2.169,0.451-3.366,0.209-4.918-1.761c-5.385-6.835-11.071-13.447-16.913-19.899c-1.493-1.648-1.391-2.748-0.677-4.46
			c3.981-9.535,7.893-19.101,11.929-28.9c-10.736-7.922-21.989-14.407-34.767-18.733c-6.309,9.556-12.577,19.05-18.575,28.135
			c-10.949-1.094-21.55-2.153-32.894-3.286c-3.046-7.302-6.492-15.74-10.081-24.118c-2.945-6.876-1.532-6.663-9.385-5.107
			c-0.749,0.148-1.553,0.024-2.331,0.027c-6.586,2.042-13.171,4.083-19.757,6.125c-1.378,0.717-2.685,1.675-4.146,2.104
			c-3.804,1.119-5.089,3.021-4.076,7.219c2.11,8.75,3.674,17.635,5.249,26.503c0.207,1.162-0.466,2.971-1.364,3.757
			c-5.861,5.128-12.184,9.761-17.754,15.175c-2.726,2.649-4.602,2.681-7.762,1.293c-8.963-3.934-18.087-7.499-28.058-11.583
			c-6.348,11.775-12.539,23.261-18.801,34.876c2.063,1.418,3.235,2.254,4.438,3.046c7.41,4.891,14.776,9.85,22.272,14.605
			c2.129,1.351,2.427,2.715,2.165,5.157c-0.898,8.389-1.257,16.835-2.098,25.232c-0.131,1.303-1.448,3.044-2.662,3.587
			c-6.646,2.975-13.458,5.583-20.165,8.426C1269.297,294.152,1267.289,295.026,1266.825,297.616z M1340.295,293.1
			c-9.714-31.336,7.814-64.613,39.15-74.327l0,0c31.336-9.713,64.612,7.815,74.327,39.15l0,0
			c9.714,31.336-7.814,64.613-39.15,74.328l0,0C1383.286,341.964,1350.01,324.436,1340.295,293.1L1340.295,293.1z"/>
		<path style="opacity:0.2;fill:#9BC1F9;" d="M1549.951,196.321l5.874,18.949c0.734,0.731,1.695,0.512,4.082-0.01
			c4.27-0.934,8.541-1.868,12.839-2.651c0.677-0.123,1.747,0.339,2.211,0.888c2.761,3.269,5.323,6.705,8.115,9.943
			c0.865,1.004,1.15,1.656,0.585,2.933c-2.261,5.105-4.378,10.273-6.525,15.362c3.728,3.466,14.784,9.453,19.107,10.298
			c2.913-4.451,5.96-8.953,8.824-13.567c0.892-1.437,1.619-1.766,3.371-1.466c4.065,0.699,8.205,1.027,12.329,1.271
			c1.671,0.099,2.702,0.362,3.366,2.12c1.723,4.555,3.72,9.004,5.52,13.531c0.483,1.216,1.132,1.744,2.398,1.362
			c5.955-1.794,11.908-3.597,17.864-5.394c1.463-0.441,0.979-1.563,0.8-2.48c-0.901-4.642-1.778-9.292-2.835-13.899
			c-0.396-1.73,0.008-2.66,1.469-3.712c3.866-2.785,7.551-5.821,11.596-8.984c5.083,2.121,10.694,4.464,16.463,6.872
			c4.446-5.752,7.69-12.064,10.043-19.106c-5.063-3.343-10.128-6.687-14.593-9.634c0.43-5.674,0.941-10.921,1.149-16.18
			c0.06-1.522,0.531-2.084,1.817-2.593c4.465-1.765,8.872-3.67,13.324-5.467c0.963-0.389,1.603-0.772,1.414-1.982
			c-0.953-6.116-2.407-12.07-5.151-17.673c-0.611-1.25-1.324-1.424-2.527-1.178c-4.844,0.987-9.705,1.883-14.544,2.89
			c-1.172,0.244-1.819,0.113-2.658-0.952c-2.91-3.694-5.983-7.268-9.142-10.755c-0.806-0.891-0.751-1.486-0.364-2.412
			c2.151-5.153,4.265-10.323,6.446-15.621c-5.803-4.282-11.886-7.787-18.791-10.125c-3.41,5.165-6.798,10.297-10.041,15.207
			c-5.917-0.591-11.647-1.163-17.779-1.775c-1.646-3.947-3.509-8.508-5.448-13.036c-1.592-3.716-0.828-3.601-5.073-2.76
			c-0.404,0.079-0.839,0.014-1.259,0.015c-3.56,1.103-7.119,2.207-10.679,3.311c-0.745,0.387-1.451,0.905-2.241,1.138
			c-2.057,0.604-2.751,1.633-2.203,3.902c1.141,4.729,1.985,9.532,2.837,14.325c0.111,0.627-0.252,1.605-0.737,2.031
			c-3.168,2.771-6.585,5.276-9.597,8.202c-1.473,1.432-2.487,1.449-4.194,0.699c-4.845-2.126-9.776-4.053-15.166-6.261
			c-3.431,6.365-6.777,12.573-10.161,18.851c1.114,0.767,1.748,1.218,2.397,1.647c4.005,2.643,7.987,5.323,12.038,7.895
			c1.151,0.73,1.313,1.467,1.171,2.787c-0.485,4.534-0.679,9.1-1.134,13.638c-0.07,0.704-0.782,1.645-1.439,1.939
			c-3.593,1.608-7.273,3.017-10.899,4.554C1551.287,194.448,1550.202,194.92,1549.951,196.321z M1589.662,193.88
			c-5.25-16.938,4.224-34.924,21.161-40.174l0,0c16.938-5.25,34.924,4.224,40.174,21.161l0,0
			c5.25,16.938-4.224,34.924-21.161,40.174l0,0C1612.899,220.291,1594.912,210.817,1589.662,193.88L1589.662,193.88z"/>
	</g>
	<g>
		<path style="fill:#86B1F2;" d="M987.359,1439.942h25.302c-4.139-2.831-9.318-4.524-14.951-4.524H363.861
			c-33.163,0-60.045,23.83-60.045,53.227v33.81c0,29.396,26.882,53.225,60.045,53.225l626.759-0.188L987.359,1439.942z"/>
		<path style="fill:#466EB6;" d="M627.51,1435.545c-31.714,0-57.422,22.788-57.422,50.9v38.208
			c0,28.112,25.708,50.901,57.422,50.901h394.586v-8.547h-1.63l-100.313-8.42l-20.275-70.509c0,0,39.132-38.961,41.684-39.966
			c2.552-1.007,78.903-4.055,78.903-4.055l1.63-0.016v-8.498H627.51z"/>
		<path style="fill:#FAE0B2;" d="M996.505,1505.299c0-41.226,24.032-61.209,24.032-61.209H635.592
			c-29.13,0-52.744,20.933-52.744,46.754v29.41c0,25.822,23.614,46.754,52.744,46.754h384.945
			C1020.537,1567.008,996.505,1557.205,996.505,1505.299z"/>
		<path style="fill:#DAEEF7;" d="M582.848,1490.844v29.41c0,3.867,0.54,7.62,1.538,11.214c12.983-28.158,37.866-55.28,85.234-64.001
			c110.592-20.36,350.917-23.377,350.917-23.377H635.592C606.462,1444.09,582.848,1465.022,582.848,1490.844z"/>
		<path style="fill:#50BFA5;" d="M976.923,1720.295h28.637c-4.685-3.543-10.546-5.662-16.922-5.662H271.244
			c-37.534,0-67.96,29.829-67.96,66.625v42.317c0,36.796,30.426,66.625,67.96,66.625l709.37-0.236L976.923,1720.295z"/>
		<path style="fill:#3C8F7C;" d="M569.644,1714.79c-35.894,0-64.992,28.526-64.992,63.714v47.826
			c0,35.187,29.098,63.713,64.992,63.713h446.596v-10.697h-1.846l-113.535-10.541l-22.947-88.256c0,0,44.291-48.769,47.179-50.027
			c2.889-1.258,89.303-5.073,89.303-5.073l1.846-0.02v-10.639H569.644z"/>
		<path style="fill:#FAE0B2;" d="M987.273,1802.101c0-51.601,27.2-76.614,27.2-76.614H578.79c-32.969,0-59.696,26.202-59.696,58.522
			v36.813c0,32.322,26.727,58.524,59.696,58.524h435.684C1014.474,1879.346,987.273,1867.074,987.273,1802.101z"/>
		<path style="fill:#DAEEF7;" d="M519.094,1784.01v36.813c0,4.84,0.611,9.538,1.741,14.036
			c14.694-35.246,42.857-69.192,96.469-80.109c125.169-25.485,397.17-29.262,397.17-29.262H578.79
			C545.821,1725.487,519.094,1751.689,519.094,1784.01z"/>
		<path style="fill:#F47458;" d="M179.64,1579.817h-28.648c4.687-2.813,10.551-4.495,16.929-4.495h761.67
			c37.548,0,67.987,23.67,67.987,52.866v33.579c0,29.197-30.439,52.865-67.987,52.865l-753.644-0.187L179.64,1579.817z"/>
		<path style="fill:#B75742;" d="M587.079,1575.447c35.908,0,65.017,22.636,65.017,50.557v37.948
			c0,27.921-29.109,50.556-65.017,50.556H140.308v-8.488h1.846l113.579-8.363l22.956-70.03c0,0-44.308-38.696-47.197-39.695
			c-2.89-0.999-89.338-4.025-89.338-4.025l-1.846-0.017v-8.441H587.079z"/>
		<path style="fill:#FAE0B2;" d="M169.284,1644.729c0-40.944-27.21-60.792-27.21-60.792h435.854
			c32.982,0,59.719,20.79,59.719,46.437v29.21c0,25.646-26.737,46.437-59.719,46.437H142.074
			C142.074,1706.02,169.284,1696.283,169.284,1644.729z"/>
		<path style="fill:#DAEEF7;" d="M637.648,1630.373v29.21c0,3.84-0.611,7.568-1.741,11.137
			c-14.7-27.967-42.874-54.903-96.507-63.565c-125.217-20.224-397.325-23.219-397.325-23.219h435.854
			C610.91,1583.937,637.648,1604.726,637.648,1630.373z"/>
	</g>
	<path style="fill:#355389;" d="M1846.501,1889.001h-1669c-1.381,0-2.5,1.119-2.5,2.5l0,0c0,1.381,1.119,2.5,2.5,2.5h1669
		c1.381,0,2.5-1.119,2.5-2.5l0,0C1849.001,1890.12,1847.882,1889.001,1846.501,1889.001z"/>
	<path style="opacity:0.2;fill:#9BC1F9;" d="M542.287,301.875c192.979,0.303,349.399,108.838,349.378,242.42
		c-0.012,66.785-39.13,127.192-102.371,170.859l45.587,132.198l-132.091-88.488c-48.083,17.177-102.692,26.837-160.583,26.743
		c-192.979-0.302-349.399-108.839-349.379-242.417C192.85,409.611,349.309,301.568,542.287,301.875z"/>
	<g>
		<g>
			
				<ellipse transform="matrix(0.3052 -0.9523 0.9523 0.3052 8.3013 946.6599)" style="fill:#C5DDF9;" cx="652.878" cy="467.641" rx="99.222" ry="99.221"/>
			<g>
				<path style="fill:#355389;" d="M652.878,570.547c-27.487,0-53.329-10.704-72.766-30.141
					c-19.437-19.436-30.141-45.278-30.141-72.765c0-27.487,10.704-53.329,30.141-72.766c19.437-19.436,45.278-30.141,72.766-30.141
					c27.487,0,53.329,10.704,72.765,30.141c19.437,19.437,30.141,45.278,30.141,72.766c0,27.487-10.704,53.329-30.141,72.765
					C706.207,559.843,680.365,570.547,652.878,570.547z M652.878,372.104c-52.68,0-95.537,42.858-95.537,95.538
					c0,52.679,42.857,95.537,95.537,95.537c52.679,0,95.537-42.857,95.537-95.537C748.415,414.962,705.557,372.104,652.878,372.104z
					"/>
			</g>
			<g>
				<path style="fill:#E25A44;" d="M703.03,434.635c-25.926-18.045-38.152,18.475-38.152,18.475s-12.226-36.521-38.152-18.475
					c-24.597,17.12,2.687,66.631,38.152,83.827C700.343,501.266,727.627,451.754,703.03,434.635z"/>
				<g>
					<polygon style="fill:#FFFFFF;" points="634.104,506.802 628.499,472.404 612.968,472.404 610.301,491.445 599.406,451.797 
						589.226,476.979 573.914,476.979 573.914,474.566 587.599,474.566 599.842,444.281 609.532,479.542 610.869,469.992 
						630.551,469.992 634.195,492.367 642.829,443.34 650.032,472.605 689.042,472.605 689.042,475.018 648.141,475.018 
						643.221,455.026 					"/>
				</g>
			</g>
		</g>
		<g>
			
				<ellipse transform="matrix(0.1707 -0.9853 0.9853 0.1707 -183.2574 829.4483)" style="fill:#C5DDF9;" cx="401.107" cy="523.589" rx="122.037" ry="122.038"/>
			<g>
				<path style="fill:#355389;" d="M401.107,650.158c-33.808,0-65.592-13.166-89.498-37.071
					c-23.906-23.906-37.071-55.691-37.071-89.498c0-33.808,13.165-65.593,37.071-89.499c23.906-23.906,55.69-37.071,89.498-37.071
					c33.808,0,65.592,13.165,89.497,37.071c23.906,23.906,37.072,55.69,37.072,89.499c0,33.807-13.165,65.592-37.072,89.498
					C466.699,636.992,434.915,650.158,401.107,650.158z M401.107,406.082c-64.793,0-117.505,52.713-117.505,117.506
					c0,64.792,52.712,117.505,117.505,117.505c64.793,0,117.506-52.713,117.506-117.505
					C518.613,458.795,465.9,406.082,401.107,406.082z"/>
			</g>
			<path style="fill:#E25A44;" d="M350.486,584.071c-10.74-22.209-19.93-43.337-19.574-67.231c0.267-17.932,11-29.767,28.71-31.034
				c40.052-2.866,80.135-1.102,120.209-0.333c7.405,0.143,6.198,4.819,4.634,9.035c-4.451,11.993-13.005,21.402-20.219,31.705
				c-11.897,16.993-29.461,19.97-48.044,21.162c-6.65,0.426-13.3-0.04-19.971,1.122c-17.29,3.011-30.136,12.401-39.907,26.542
				C354.603,577.532,353.029,580.126,350.486,584.071z"/>
			<path style="fill:#E25A44;" d="M452.185,555.057c-22.986,20.76-48.658,35.691-79.974,39.025c-4.918,0.524-5.222-1.362-3.156-5.13
				c9.919-18.09,24.662-29.519,45.514-31.13C427.039,556.858,439.594,557.001,452.185,555.057z"/>
			<polygon style="fill:#FFFFFF;" points="406.394,451.332 389.064,502.433 403.107,499.811 387.234,536.132 429.158,490.882 
				411.986,488.945 436.737,457.465 			"/>
		</g>
		<g>
			<g>
				
					<ellipse transform="matrix(0.7071 -0.7071 0.7071 0.7071 -297.8311 606.5128)" style="fill:#C5DDF9;" cx="583.21" cy="662.77" rx="81.451" ry="81.451"/>
				<g>
					<path style="fill:#355389;" d="M583.21,747.246c-22.564,0-43.778-8.787-59.733-24.742
						c-15.955-15.956-24.742-37.169-24.742-59.733c0-22.565,8.787-43.778,24.742-59.734c15.956-15.956,37.169-24.742,59.733-24.742
						c22.564,0,43.778,8.787,59.734,24.742c15.955,15.956,24.742,37.169,24.742,59.734c0,22.564-8.787,43.778-24.742,59.733
						C626.988,738.459,605.774,747.246,583.21,747.246z M583.21,584.344c-43.244,0-78.426,35.182-78.426,78.427
						c0,43.244,35.182,78.427,78.426,78.427c43.245,0,78.427-35.183,78.427-78.427C661.637,619.525,626.455,584.344,583.21,584.344z
						"/>
				</g>
			</g>
			<g>
				
					<ellipse transform="matrix(0.7071 -0.7071 0.7071 0.7071 -297.9233 606.4806)" style="fill:#FFFFFF;" cx="583.125" cy="662.866" rx="51.709" ry="51.709"/>
				
					<ellipse transform="matrix(0.7071 -0.7071 0.7071 0.7071 -297.9233 606.4806)" style="fill:#E25A44;" cx="583.125" cy="662.866" rx="46.877" ry="46.878"/>
				<polygon style="fill:#FFFFFF;" points="588.165,631.584 578.732,631.487 578.457,658.159 551.783,658.222 551.805,667.655 
					578.359,667.593 578.086,694.146 587.519,694.244 587.794,667.571 614.468,667.509 614.445,658.076 587.891,658.138 				"/>
			</g>
		</g>
	</g>
	<g>
		<g>
			<path style="fill:#F7A491;" d="M985.273,1307.779c0.596-3.521-16.023-3.461-17.454-6.677c-1.432-3.216,19.792-7.087,20.052-10.17
				c0.479-5.679-23.504,2.81-23.45,0.184c0.055-2.627,24.357-12.6,20.884-16.503c-3.472-3.901-24.12,12.972-25.315,10.126
				c-1.194-2.845,20.614-13.964,19.099-20.388c-0.811-3.434-34.863,23.729-39.542,22.58c-4.68-1.148,1.598-18.999-2.283-20.831
				c-3.881-1.831-8.734,33.198-10.927,34.792c-2.185,1.588-50.724,32.365-68.007,40.039c-3.22-5.679-26.118-35.483-29.023-40.877
				c-8.912,8.935-24.401,5.479-33.747,13.831c10.803,17.708,42.271,70.715,47.956,72.204c17.311,4.535,82.545-51.767,93.458-62.699
				c10.923-10.942,18.519-9.284,26.445-13.501C971.347,1305.674,984.676,1311.299,985.273,1307.779z"/>
			<path style="fill:#244A41;" d="M840.141,1310.225c0,0-24.473-65.938-39.82-81.375c-15.347-15.436-48.215-15.348-58.116,1.85
				c-9.901,17.197,53.508,96.58,53.508,96.58L840.141,1310.225z"/>
			<path style="fill:#F7A491;" d="M753.983,1266.201c24.898-0.544,22.092-48.676,22.092-48.676c2.239,0.195,4.094,0.436,5.424,0.725
				c-1.33-0.291-3.184-0.53-5.423-0.725c-9.521-0.828-17.181-8.121-18.72-17.555c-1.125-6.896-1.889-14.455-1.059-19.653
				c1.889-11.832-30.569-4.109-30.569-4.109l-4.252,28.126c-1.236,8.172-7.372,14.733-15.443,16.514
				C706.035,1220.848,729.087,1266.746,753.983,1266.201z"/>
			<path style="fill:#F48C7F;" d="M634.559,1825.288c0,0-8.967,8.78-9.17,12.001c-0.204,3.223-0.794,37.738,2.867,40.96
				c3.66,3.222,14.412,5.507,10.955,9.132c-2.612,2.739-22.712,2.153-36.033,1.418c-3.889-0.215-8.766-31.346-10.306-35.922
				c-2.236-6.646-7.676-21.615-5.643-26.246c0.991-2.257,5.732-6.895,12.411-11.224c7.026-4.554,13.748-14.691,13.748-14.691
				L634.559,1825.288z"/>
			<path style="fill:#F7A491;" d="M727.444,1845.732c0,0-8.024,22.745-8.034,22.804c-0.597,3.604-2.945,12.507-2.945,15.782
				c0,12.307,55.313-10.446,42.917-15.901c-1.122-0.494-4.642-4.438-5.011-8.625c-0.568-6.454,4.66-14.548,4.66-14.548
				L727.444,1845.732z"/>
			<g>
				<path style="fill:#EAB054;" d="M814.218,1422.184c0,0,9.835,39.551,9.835,40.158c0,65.961,7.228,196.028,4.75,208.429
					c-6.046,30.248-71.113,184.547-71.113,184.547l-35.167-4.217l24.338-165.483l-33.542-113.959l14.304-126.643L814.218,1422.184z"
					/>
				<path style="fill:#F7CC7F;" d="M645.271,1451.619l13.743,149.162l-56.305,210.621c0,0,9.672,22.619,23.94,25.797l109.43-159.602
					l67.976-204.225l-2.387-45.372L645.271,1451.619z"/>
			</g>
			<path style="fill:#50BFA5;" d="M600.075,1815.188c0,0,20.666,58.386,28.755,61.204c2.148,0.748,12.455,2.646,14.399,7.221
				c0.586,1.378,0,5.979,0,5.979h-43.076c0,0-5.448-25.725-7.602-37.028c0,0-11.402-27.616-10.135-30.125
				C583.683,1819.93,600.075,1815.188,600.075,1815.188z"/>
			<path style="fill:#50BFA5;" d="M713.318,1888.379l6.334-20.077c0,0,13.303,5.646,19.954,4.705
				c6.652-0.94,19.638-4.705,19.638-4.705c26.549,8.769,48.299,13.022,44.343,20.077l0,0H713.318z"/>
			<path style="opacity:0.5;fill:#F47458;" d="M756.298,1180.317c1.889-11.831-30.569-4.109-30.569-4.109l-0.523,3.466
				c0.949,2.318,2.11,4.303,3.52,5.824c7.25,7.83,18.583,12.531,28.381,12.888C756.125,1192.006,755.523,1185.169,756.298,1180.317z
				"/>
			<g>
				<path style="fill:#F7A491;" d="M720.403,1117.09c-0.917-0.336-8.393,52.654,3.821,65.842
					c12.213,13.188,39.634,13.514,48.17,3.127c9.441-11.488,6.382-64.071-12.607-77.637
					C740.798,1094.855,720.403,1117.09,720.403,1117.09z"/>
				<path style="fill:#184655;" d="M752.558,1082.783c-14.677,3.003-24.185,12.003-27.677,15.839
					c-6.664,0.79-15.723,4.485-25.077,20.024c-11.501,19.108-3.007,40.277,10.381,50.664c13.388,10.387,13.202,22.385,13.202,22.385
					l2.117-6.205c1.562-4.702,2.2-9.687,1.677-14.618c-0.314-2.958-0.945-6.157-2.166-8.788c-3.22-6.935,6.917-11.545,9.76-17.316
					c2.188-4.443,2.294-14.608,5.743-21.954l4.118-5.606c0,0,9.501-7.419,18.796-5.326
					C772.727,1113.975,771.389,1078.93,752.558,1082.783z"/>
				<path style="fill:#F7A491;" d="M734.15,1153.297c0.097,5.848-2.552,10.635-5.917,10.693c-3.364,0.057-6.171-4.636-6.268-10.484
					c-0.097-5.847,2.552-10.634,5.917-10.691C731.247,1142.756,734.053,1147.45,734.15,1153.297z"/>
			</g>
			<path style="fill:#FFFFFF;" d="M771.769,1171.359l-12.165,1.863c0,0-0.428-4.68,4.898-5.654
				C770.996,1166.381,771.769,1171.359,771.769,1171.359z"/>
			<path style="fill:#327F6B;" d="M795.651,1238.637c-6.155-12.793-13.002-20.078-13.002-20.078
				c-1.287-0.434-3.588-0.773-6.574-1.033c0,0,2.806,48.132-22.092,48.677c-24.897,0.544-47.95-45.354-47.95-45.354
				c-6.293,1.388-13.345,3.021-17.66,4.266c0,0-21.763,4.133-27.672,36.69c-5.909,32.555-16.882,154.955-17.727,180.279
				c-0.614,18.441,27.551,34.536,66.674,41.643c9.379,2.466,21.516,4.273,36.25,3.755c3.698,0.112,7.436,0.151,11.206,0.106
				c43.386-0.521,58.856-12.837,64.217-20.068c0.914-0.432,1.808-0.82,2.73-1.267c0,0-0.104-1.07-0.293-3.01
				c0.216-0.566,0.293-0.898,0.293-0.898S855.85,1342.365,795.651,1238.637z"/>
			<path style="fill:#F7A491;" d="M680.461,1316.981c0,0-27.069,59.063-34.289,79.354c-7.219,20.291-20.976,97.225-21.415,100.23
				c-0.438,3.006,27.087,30.974,22.729,33.246c-4.358,2.271-13.338-15.037-17.775-11.602c-4.438,3.434-9.381,51.688-12.64,50.162
				c-6.098-2.854,1.902-29.644-1.196-30.439c-3.099-0.796-5.786,28.729-11.428,29.278c-5.642,0.55,5.133-27.723,3.152-29.492
				c-1.981-1.77-13.658,25.246-17.666,21.099c-2.177-2.253,10.96-23.773,7.396-24.601c-3.563-0.826-16.138,14.08-18.396,11.241
				c-2.258-2.839,12.197-11.078,14.97-20.931c2.772-9.854,9.816-15.563,9.686-32.501c-0.131-16.938-8.781-86.22,1.774-119.479
				c10.554-33.259,25.795-75.276,25.795-75.276L680.461,1316.981z"/>
			<path style="fill:#244A41;" d="M609.483,1326.578l53.812,35.903c0,0,27.339-44.615,43.042-60.165
				c19.67-19.479-7.166-79.15-19.838-75.774C658.15,1234.094,609.483,1326.578,609.483,1326.578z"/>
		</g>
	</g>
	<g>
		<path style="fill:#F7CC7F;" d="M340.872,1226.139c-7.492-18.027-15.112-36.096-34.551-45.226
			c-15.73-7.389-32.166-4.607-46.144,5.904c-39.605,29.781-5.095,62.596-50.179,119.072c-14.009,17.548-30.965,31.717-39.358,52.281
			c-11.749,28.783,2.245,42.607,24.672,56.393c107.311,65.961,163.563-69.471,161.544-100.45
			C355.353,1291.064,345.694,1237.746,340.872,1226.139z"/>
		<path style="fill:#F7A491;" d="M452.239,1577.164c-4.525-0.717-15.513-8.586-19.391-9.303c-3.007-0.555-9.508-1.539-12.278-1.954
			c-3.393-12.673-17.573-90.006-19.504-110.259c-2.092-21.941-20.664-108.624-20.664-108.624l-40.177,7.302
			c0,0,16.686,73.023,21.299,108.432c3.962,30.412,37.331,98.793,41.572,106.008c0.006,0.175,0.008,0.343,0.02,0.526
			c0.646,10.733,5.816,7.155,5.816,7.155l8.403,2.147c0,0,29.732,2.863,31.671,3.578
			C450.946,1582.888,456.763,1577.88,452.239,1577.164z"/>
		<path style="fill:#B75742;" d="M345.371,1291.534c28.402,9.631,44.552,86.846,44.552,86.846s-44.561,12.441-55.978,5.915
			c0,0-12.96-57.44-17.603-55.434L345.371,1291.534z"/>
		<path style="fill:#F7A491;" d="M560.691,1709.648c8.691,22.92,17.58,45.918,17.987,48.59c0.195,1.282-1.618,7.512-1.449,8.846
			c17.445,23.797,42.517,29.002,64.008,30.52c-10.953-10.692-27.036-20.825-27.81-24.211c-1.231-5.392-5.753-31.229-9.005-64.494
			C591.053,1715.082,575.508,1711.097,560.691,1709.648z"/>
		<path style="fill:#13375B;" d="M310.253,1475.652l-30.751,86.606c0,0,61.683,11.61,84.744,15.84
			c23.06,4.229,151.902,9.857,155.167,12.143c2.423,1.698,29.039,87.781,40.927,135.248c13.488,2.967,36.576-0.598,48.857-4.83
			c-6.636-67.916-29.223-176.544-38.279-187.227C532.066,1487.604,310.253,1475.652,310.253,1475.652z"/>
		<path style="fill:#F7A491;" d="M462.399,1756.315c4.242,24.143,9.969,48.317,9.868,51.017c-0.049,1.297-2.998,7.077-3.081,8.42
			c12.676,26.643,36.329,36.454,57.155,41.971c-8.755-12.556-22.656-25.522-22.78-28.993c-0.198-5.526-0.817-29.919,0.838-63.628
			C490.108,1768.671,476.683,1760.515,462.399,1756.315z"/>
		<path style="fill:#355389;" d="M273.077,1459.766l-14.888,25.428c-22.667,38.715-5.292,88.523,36.533,104.75
			c0.226,0.088,0.448,0.174,0.667,0.259c21.859,8.474,147.364,38.146,150.143,41.006c2.062,2.121,12.075,91.667,14.858,140.521
			c12.693,5.442,36.039,6.267,48.897,4.411c6.208-67.956,3.693-181.448-2.719-193.898
			C482.566,1535.648,273.077,1459.766,273.077,1459.766z"/>
		<path style="fill:#13375B;" d="M471.653,1809.319c-6.421,1.162-13.072,15.386-16.137,19.719c-3.448,4.876-2.467,8.55-2.054,9.313
			c1.088,2.011,65.78,40.071,81.558,42.781c1.49,0.255,4.072-0.687,4.722-1.262c6.167-5.46-22.216-45.76-34.959-51.056
			C496.546,1825.391,486.686,1825.922,471.653,1809.319z"/>
		<path style="fill:#13375B;" d="M578.678,1758.238c-5.862,1.66-10.155,19.981-12.353,24.813c-2.474,5.436-0.821,8.86-0.272,9.531
			c1.446,1.772,72.124,27.036,88.129,26.741c1.512-0.028,3.872-1.437,4.403-2.124c5.034-6.518-30.398-40.785-43.908-43.601
			C605.944,1771.78,596.557,1771.73,578.678,1758.238z"/>
		<path style="fill:#F47458;" d="M318.435,1291.313L318.435,1291.313h0.001c0.734,0.005,1.786-0.252,2.863-0.592
			c5.275-0.943,16.808-2.324,25.781,1.463c10.914,4.604,34.386,38.303,33.379,82.465c-0.404,6.751,9.462,38.5,9.462,62.5
			s-5.491,47.295-6.008,47.629c-13.019,8.379-118.302,4.093-123.701-3.043c-5.398-7.137-5.866-109.552-8.492-113.875l-5.16-75.407
			C255.67,1289.733,304.469,1291.213,318.435,1291.313z"/>
		<path style="fill:#F7A491;" d="M286.601,1263.543c0,0,5.058,26.16,4.045,36.479c-1.013,10.318,3.857,43.576,25.699,43.686
			c21.842,0.109,7.484-42.957,5.426-53.068c-2.057-10.111-3.528-39.865-3.528-39.865L286.601,1263.543z"/>
		<path style="fill:#F47458;" d="M318.897,1261.973c-0.34-8.564-3.007-12.074-3.007-12.074l-29.289,13.644
			c0,0,1.034,5.35,2.074,12.164C301.495,1278.285,315.191,1270.148,318.897,1261.973z"/>
		<path style="fill:#F7A491;" d="M275.896,1191.346c0,0-11.287,6.262-15.413,19.832c-4.126,13.57,0.57,48.588,29.725,57.039
			c29.155,8.449,41.785-19.279,35.78-40.957C319.983,1205.579,306.922,1178.126,275.896,1191.346z"/>
		<path style="fill:#F7A491;" d="M329.634,1218.855c-0.571,5.823-3.784,10.274-7.176,9.941c-3.392-0.332-5.678-5.323-5.107-11.144
			c0.572-5.824,3.784-10.273,7.176-9.941C327.919,1208.043,330.205,1213.033,329.634,1218.855z"/>
		<path style="fill:#F7CC7F;" d="M279.315,1189.576c0,0-5.287,39.065-17.917,46.113c-12.629,7.049-7.343,24.379-7.343,24.379
			s-11.455-40.238-1.468-53.162C262.573,1193.982,279.315,1189.576,279.315,1189.576z"/>
		<path style="fill:#F7A491;" d="M268.878,1241.297c3.425,5.09,3.412,11.092-0.028,13.407c-3.44,2.315-9.005,0.065-12.43-5.025
			c-3.425-5.09-3.413-11.092,0.028-13.406C259.888,1233.959,265.453,1236.207,268.878,1241.297z"/>
		<path style="fill:#FFFFFF;" d="M298.519,1253.687l14.324-2.771c0,0-2.276-3.018-7.526-2.268
			C299.132,1249.531,298.519,1253.687,298.519,1253.687z"/>
		<path style="fill:#F7A491;" d="M118.749,1569.367c0.366-0.935,1.186-0.954,2.023-0.979c8.132-0.249,16.254-0.613,24.315-1.819
			c1.346-0.2,2.67-0.504,3.906-0.997c2.243-0.896,4.458-0.874,6.722-0.247c1.226,0.34,2.472,0.402,3.737,0.396
			c4.087-0.018,15.749-3.986,21.742-5.032c1.368-0.239,2.454-1.273,2.795-2.621c5.894-23.309,18.537-75.611,20.176-92.809
			c2.097-21.993,17.285-121.152,17.285-121.152l40.636,11.332c0,0-4.02,73.711-13.908,109.195
			c-7.419,26.624-31.112,84.094-43.612,102.516c-6.334,11.667-16.98,12.053-19.167,12.318c-1.25,0.152-2.399,0.767-3.22,1.724
			c-1.483,1.729-3.182,3.232-5.126,4.46c-1.441,0.909-2.551,2.094-3.501,3.48c-1.727,2.521-3.27,5.153-4.797,7.797
			c-1.013,1.752-2.074,2.306-3.577,1.893c-1.613-0.443-2.382-1.633-2.351-3.598c0.046-2.903,0.972-5.529,2.429-8.005
			c1.366-2.32,1.265-3.667-0.325-5.802c-0.914-1.227-1.855-2.417-3.054-3.393c-1.22-0.992-2.501-1.744-4.154-1.513
			c-2.921,0.729-5.867,1.32-8.862,1.651l-2.458,0.502c-0.087,0.012-1.341,0.285-1.341,0.285c-0.208,0.053-4.532,0.526-6.011,0.529
			c-1.19,0.001-3.116,0.079-4.754,0.159c-1.483,0.072-4.619-0.703-4.726-0.706c-1.444-0.031-2.72-0.553-3.797-1.521
			c-0.44-0.396-0.864-0.841-0.64-1.513c0.206-0.618,0.691-0.881,1.32-0.994c0.977-0.176,6.022-0.789,5.966-1.002
			c-1.499,0-6.191-0.111-7.689-0.15c-2.019-0.054-3.769-0.777-5.162-2.271C119.02,1570.89,118.382,1570.306,118.749,1569.367z"/>
		<path style="fill:#F47458;" d="M246.067,1292.291c-20.055-3.646-36.601,86.089-36.601,86.089s44.56,12.441,55.978,5.915
			c0,0,12.96-57.44,17.602-55.434L246.067,1292.291z"/>
	</g>
</g>
</svg>
