<?xml version="1.0" encoding="utf-8"?>
<!-- Generator: Adobe Illustrator 27.5.0, SVG Export Plug-In . SVG Version: 6.00 Build 0)  -->
<svg version="1.1" xmlns="http://www.w3.org/2000/svg" xmlns:xlink="http://www.w3.org/1999/xlink" x="0px" y="0px"
	 viewBox="0 0 500 500" style="enable-background:new 0 0 500 500;" xml:space="preserve">
<g id="BACKGROUND">
	<path style="fill:#F2F4F4;" d="M50.029,423.067h397.838V56.476H56.402C56.402,56.476,49.119,423.067,50.029,423.067z"/>
</g>
<g id="OBJECTS">
	<g>
		<g>
			<g>
				
					<rect x="262.226" y="72.244" transform="matrix(0.9909 0.1343 -0.1343 0.9909 16.2525 -35.1104)" style="fill:#363169;" width="12.389" height="61.38"/>
				
					<rect x="265.837" y="78.068" transform="matrix(0.9909 0.1343 -0.1343 0.9909 13.4428 -35.6841)" style="fill:#FFFFFF;" width="10.887" height="7.508"/>
			</g>
			<g>
				
					<rect x="275.365" y="72.244" transform="matrix(0.9909 0.1343 -0.1343 0.9909 16.3713 -36.8745)" style="fill:#4375D5;" width="12.389" height="61.38"/>
				
					<rect x="278.977" y="78.068" transform="matrix(0.9909 0.1343 -0.1343 0.9909 13.5619 -37.4487)" style="fill:#FFFFFF;" width="10.887" height="7.508"/>
			</g>
			<g>
				
					<rect x="288.505" y="72.244" transform="matrix(0.9909 0.1343 -0.1343 0.9909 16.4904 -38.6391)" style="fill:#3760D4;" width="12.389" height="61.38"/>
				
					<rect x="292.116" y="78.068" transform="matrix(0.9909 0.1343 -0.1343 0.9909 13.6807 -39.2125)" style="fill:#FFFFFF;" width="10.887" height="7.508"/>
			</g>
			<g>
				
					<rect x="301.644" y="72.244" transform="matrix(0.9909 0.1343 -0.1343 0.9909 16.6094 -40.4034)" style="fill:#6BBDBE;" width="12.389" height="61.38"/>
				
					<rect x="305.256" y="78.068" transform="matrix(0.9909 0.1343 -0.1343 0.9909 13.7997 -40.9768)" style="fill:#FFFFFF;" width="10.887" height="7.508"/>
			</g>
			<g>
				
					<rect x="314.784" y="72.244" transform="matrix(0.9909 0.1343 -0.1343 0.9909 16.7284 -42.1677)" style="fill:#61ABBD;" width="12.389" height="61.38"/>
				
					<rect x="318.395" y="78.068" transform="matrix(0.9909 0.1343 -0.1343 0.9909 13.9187 -42.7411)" style="fill:#FFFFFF;" width="10.887" height="7.508"/>
			</g>
			<g>
				
					<rect x="327.923" y="72.244" transform="matrix(0.9909 0.1343 -0.1343 0.9909 16.8474 -43.932)" style="fill:#4375D5;" width="12.389" height="61.38"/>
				
					<rect x="331.535" y="78.068" transform="matrix(0.9909 0.1343 -0.1343 0.9909 14.0377 -44.5053)" style="fill:#FFFFFF;" width="10.887" height="7.508"/>
			</g>
			<g>
				
					<rect x="341.063" y="72.244" transform="matrix(0.9909 0.1343 -0.1343 0.9909 16.9664 -45.6964)" style="fill:#363169;" width="12.389" height="61.38"/>
				
					<rect x="344.674" y="78.068" transform="matrix(0.9909 0.1343 -0.1343 0.9909 14.1567 -46.2695)" style="fill:#FFFFFF;" width="10.887" height="7.508"/>
			</g>
			<g>
				
					<rect x="354.202" y="72.244" transform="matrix(0.9909 0.1343 -0.1343 0.9909 17.0854 -47.4607)" style="fill:#61ABBD;" width="12.389" height="61.38"/>
				
					<rect x="357.814" y="78.068" transform="matrix(0.9909 0.1343 -0.1343 0.9909 14.2757 -48.0338)" style="fill:#FFFFFF;" width="10.887" height="7.508"/>
			</g>
			<g>
				
					<rect x="367.342" y="72.244" transform="matrix(0.9909 0.1343 -0.1343 0.9909 17.2044 -49.225)" style="fill:#4375D5;" width="12.389" height="61.38"/>
				
					<rect x="370.953" y="78.068" transform="matrix(0.9909 0.1343 -0.1343 0.9909 14.3946 -49.798)" style="fill:#FFFFFF;" width="10.887" height="7.508"/>
			</g>
			<g>
				
					<rect x="380.481" y="72.244" transform="matrix(0.9909 0.1343 -0.1343 0.9909 17.3234 -50.9893)" style="fill:#363169;" width="12.389" height="61.38"/>
				
					<rect x="384.093" y="78.068" transform="matrix(0.9909 0.1343 -0.1343 0.9909 14.5136 -51.5623)" style="fill:#FFFFFF;" width="10.887" height="7.508"/>
			</g>
			<g>
				
					<rect x="393.62" y="72.244" transform="matrix(0.9909 0.1343 -0.1343 0.9909 17.4422 -52.7532)" style="fill:#61ABBD;" width="12.389" height="61.38"/>
				
					<rect x="397.232" y="78.068" transform="matrix(0.9909 0.1343 -0.1343 0.9909 14.6326 -53.3265)" style="fill:#FFFFFF;" width="10.887" height="7.508"/>
			</g>
			<rect x="241.484" y="131.371" style="fill:#D6E3ED;" width="186.956" height="11.262"/>
		</g>
		<g>
			<g>
				
					<rect x="262.226" y="148.546" transform="matrix(0.9909 0.1343 -0.1343 0.9909 26.4981 -34.4194)" style="fill:#363169;" width="12.389" height="61.38"/>
				
					<rect x="265.837" y="154.37" transform="matrix(0.9909 0.1343 -0.1343 0.9909 23.6897 -34.9954)" style="fill:#FFFFFF;" width="10.887" height="7.508"/>
			</g>
			<g>
				
					<rect x="275.365" y="148.546" transform="matrix(0.9909 0.1343 -0.1343 0.9909 26.6169 -36.1835)" style="fill:#4375D5;" width="12.389" height="61.38"/>
				
					<rect x="278.977" y="154.37" transform="matrix(0.9909 0.1343 -0.1343 0.9909 23.809 -36.7601)" style="fill:#FFFFFF;" width="10.887" height="7.508"/>
			</g>
			<g>
				
					<rect x="288.505" y="148.546" transform="matrix(0.9909 0.1343 -0.1343 0.9909 26.7361 -37.9481)" style="fill:#363169;" width="12.389" height="61.38"/>
				
					<rect x="292.116" y="154.37" transform="matrix(0.9909 0.1343 -0.1343 0.9909 23.9277 -38.5241)" style="fill:#FFFFFF;" width="10.887" height="7.508"/>
			</g>
			<g>
				
					<rect x="301.644" y="148.546" transform="matrix(0.9909 0.1343 -0.1343 0.9909 26.8551 -39.7124)" style="fill:#454487;" width="12.389" height="61.38"/>
				
					<rect x="305.256" y="154.37" transform="matrix(0.9909 0.1343 -0.1343 0.9909 24.0467 -40.2885)" style="fill:#FFFFFF;" width="10.887" height="7.508"/>
			</g>
			<g>
				
					<rect x="314.784" y="148.546" transform="matrix(0.9909 0.1343 -0.1343 0.9909 26.9741 -41.4767)" style="fill:#61ABBD;" width="12.389" height="61.38"/>
				
					<rect x="318.395" y="154.37" transform="matrix(0.9909 0.1343 -0.1343 0.9909 24.1657 -42.0528)" style="fill:#FFFFFF;" width="10.887" height="7.508"/>
			</g>
			<g>
				
					<rect x="327.923" y="148.546" transform="matrix(0.9909 0.1343 -0.1343 0.9909 27.0931 -43.241)" style="fill:#454487;" width="12.389" height="61.38"/>
				
					<rect x="331.535" y="154.37" transform="matrix(0.9909 0.1343 -0.1343 0.9909 24.2847 -43.8172)" style="fill:#FFFFFF;" width="10.887" height="7.508"/>
			</g>
			<rect x="241.484" y="207.674" style="fill:#D6E3ED;" width="186.956" height="11.262"/>
		</g>
	</g>
	<g>
		<rect x="77.054" y="91.39" style="fill:#ADCBF0;" width="105.303" height="253.967"/>
		<g>
			<rect x="87.19" y="101.526" style="fill:#FFFFFF;" width="83.905" height="42.797"/>
			<rect x="87.19" y="153.896" style="fill:#FFFFFF;" width="83.905" height="42.797"/>
			<rect x="87.19" y="206.266" style="fill:#FFFFFF;" width="83.905" height="42.797"/>
			<rect x="87.19" y="258.636" style="fill:#FFFFFF;" width="83.905" height="42.797"/>
			<rect x="111.967" y="117.856" style="fill:#D6E3ED;" width="37.729" height="7.884"/>
			<rect x="111.967" y="171.353" style="fill:#D6E3ED;" width="37.729" height="7.884"/>
			<rect x="111.967" y="224.849" style="fill:#D6E3ED;" width="37.729" height="7.884"/>
			<rect x="111.967" y="278.345" style="fill:#D6E3ED;" width="37.729" height="7.884"/>
		</g>
	</g>
	<g>
		<path style="fill:#DC9975;" d="M285.408,219.781c0,0,8.635,36.415,7.884,57.814l-38.292,0.375l-3.003-47.302L285.408,219.781z"/>
		<path style="fill:#DC9975;" d="M132.615,219.406c0,0-8.635,43.923,1.126,58.94c38.668,0.751,38.668,0.751,38.668,0.751
			l-4.88-52.558L132.615,219.406z"/>
		<g>
			<path style="fill:#363169;" d="M200.94,107.532c0,0-11.262,0.375-14.641,14.641c-3.379,14.266,12.764,22.525,21.774,19.146
				c9.01-3.379,22.525-16.894,10.136-34.163L200.94,107.532z"/>
			<path style="fill:#4375D5;" d="M192.775,88.574l-1.408-11.544c0,0,2.534-7.602,14.359-8.447
				c11.826-0.845,14.078,6.476,14.078,6.476l2.159,12.576C221.963,87.635,192.493,89.137,192.775,88.574z"/>
			<path style="fill:#EDBF88;" d="M220.461,84.257c0,0-25.716,2.628-25.716,2.628c0,11.069-1.991,34.35,14.923,34.35
				c7.93,0,14.359-7.69,14.359-17.175c0-0.095-0.011-0.187,0-0.282L220.461,84.257z"/>
			<g>
				<path style="fill:#EDBF88;" d="M236.698,152.488c-3.612-0.274-7.245-0.428-10.798-0.497l-7.691-38.453l-12.764-0.375
					l-8.702,39.907c-3.375,0.3-5.376,0.543-5.376,0.543l-6.476,0.282c0,0,6.757,20.554,10.418,25.34s12.952,8.728,19.146,9.291
					c6.194,0.563,13.233-7.039,18.02-12.107C237.261,171.353,236.698,152.488,236.698,152.488z"/>
				<path style="fill:#DC9975;" d="M218.569,115.341l-13.764,0.756l-3.305,15.159c2.048,2.267,4.665,3.998,7.616,4.811
					c4.441,1.225,9.417,0.188,13.094-2.522L218.569,115.341z"/>
			</g>
			<path style="fill:#EDBF88;" d="M197.561,101.526c0,0-9.385-1.877-7.133,6.382c2.252,8.259,7.884,4.505,7.884,4.505
				L197.561,101.526z"/>
			<path style="fill:#363169;" d="M212.953,85.758c0,0-3.191,15.204-16.33,17.457c-1.502,0.751-2.065,0-2.065,0
				s-1.502-1.314-3.754,0.188c-1.502-9.385,0.751-17.269,6.382-21.023C202.817,78.626,213.328,78.25,212.953,85.758z"/>
			<path style="fill:#363169;" d="M212.953,85.758c0,0,10.887,12.952,11.075,18.301c5.443-6.663,2.065-28.062-14.078-23.182
				l-3.379,3.003L212.953,85.758z"/>
			<g>
				<polygon style="fill:#FFFFFF;" points="194.792,104.295 200.517,106.172 199.72,104.388 194.558,103.215 				"/>
				<path style="fill:#FFFFFF;" d="M196.81,113.117l0.61-0.235c0,0,1.924,3.097,1.924,3.238s-0.563,0.422-0.563,0.422
					L196.81,113.117z"/>
				<path style="fill:#8BBEBE;" d="M199.438,103.403c0,0,1.502,9.385-1.032,13.046c9.01,7.884,20.554,4.223,23.651,1.126
					c0,0,4.13-4.317,2.159-14.172H199.438z"/>
			</g>
		</g>
		<g>
			<path style="fill:#6BBDBE;" d="M191.367,153.051c0,0,12.107,21.399,23.651,25.34c12.107-12.389,17.457-27.311,17.457-27.311
				c7.875,0.359,15.879,0.949,23.521,2.996c3.678,0.985,7.163,2.235,10.266,4.512c3.681,2.701,5.158,6.899,7.243,10.833
				c5.251,9.904,9.653,20.351,12.809,31.114c0.582,1.983,6.189,21.87,3.317,22.905c-24.214,8.728-35.195,11.544-35.195,11.544
				l2.816,41.671v7.321l-83.623,2.816l-5.913-55.186l-40.545-8.728c0,0,0.563-12.389,8.165-36.603
				c7.602-24.214,22.243-29.282,22.243-29.282S173.347,153.333,191.367,153.051z"/>
			<path style="fill:#61ABBD;" d="M155.321,274.72c23.091-8.659,45.969-17.888,68.605-27.677c10.36-4.48,20.725-9.107,30.135-15.34
				l3.191,44.953L155.321,274.72z"/>
			<path style="fill:#61ABBD;" d="M171.658,231.794l6.455-56.483c0,0-27.854,23.447-24.85,30.955
				c3.003,7.508,3.003,7.508,3.003,7.508s-22.525,2.628-19.897,11.262L171.658,231.794z"/>
			<path style="fill:#61ABBD;" d="M254.436,234.985l-2.816-56.5c0,0,13.139,8.634,14.641,16.518
				c1.502,7.884,0.751,15.016,0.751,15.016s9.761,4.88,9.761,18.02L254.436,234.985z"/>
			<rect x="220.086" y="194.628" style="fill:#FFFFFF;" width="25.903" height="13.89"/>
		</g>
		<g>
			<path style="fill:#363169;" d="M195.587,198.387L195.587,198.387c-0.686,0.466-1.62,0.287-2.086-0.399l-15.388-22.677
				c-0.466-0.686-0.287-1.62,0.399-2.086l0,0c0.686-0.466,1.62-0.287,2.086,0.399l15.388,22.677
				C196.452,196.988,196.273,197.921,195.587,198.387z"/>
			<path style="fill:#EDBF88;" d="M133.741,278.345c0,0-1.502-16.518,15.017-32.286c16.518-15.767,37.917-41.671,37.917-41.671
				s-4.505-4.505-3.379-7.133c1.126-2.628,13.515-8.259,13.515-8.259s0.751,3.003-2.628,5.631c4.13,2.253,7.884,7.133,6.757,10.887
				c-1.126,3.754-7.884,4.88-7.884,4.88s-12.013,64.196-15.392,68.325L133.741,278.345z"/>
		</g>
		<path style="fill:#EDBF88;" d="M268.139,241.93l-63.445,26.654c0,0-18.395-0.375-18.771,6.757
			c1.877,3.379,1.877,3.379,1.877,3.379l105.491-1.126C293.291,277.595,294.793,235.548,268.139,241.93z"/>
	</g>
	<g>
		<g>
			<g>
				<rect x="70.296" y="285.666" style="fill:#4C86D6;" width="351.95" height="137.964"/>
				<polygon style="fill:#417DC4;" points="320.038,285.666 241.092,423.63 394.778,423.63 422.246,288.975 422.246,288.856 
					359.77,285.666 				"/>
			</g>
			<polygon style="fill:#FFFFFF;" points="260.067,334.417 225.957,334.417 225.957,300.307 195.069,300.307 195.069,334.417 
				160.958,334.417 160.958,365.305 195.069,365.305 195.069,399.416 225.957,399.416 225.957,365.305 260.067,365.305 			"/>
		</g>
		<rect x="48.522" y="275.342" style="fill:#4375D5;" width="373.748" height="13.515"/>
	</g>
	<g>
		<polygon style="fill:#363169;" points="39.888,173.98 114.595,158.589 118.349,255.82 48.522,253.193 		"/>
		<polygon style="fill:#363169;" points="65.416,250.189 66.542,267.834 59.409,268.209 59.034,274.967 114.595,275.717 
			114.595,267.834 101.831,267.834 100.705,251.316 		"/>
		<polygon style="fill:#454487;" points="114.595,158.589 121.352,159.339 124.731,253.943 118.349,255.82 		"/>
	</g>
	<g>
		<g>
			<path style="fill:#363169;" d="M391.65,434.892h54.059l3.379-117.88c0,0-46.176,5.631-46.551,6.758
				c-0.375,1.126-18.02,106.617-18.02,106.617L391.65,434.892z"/>
			<path style="fill:#454487;" d="M339.092,304.624c0,0-16.518,90.85-14.266,130.268h72.079l15.204-53.496
				c0,0,16.706-18.958,29.095-36.603c12.389-17.644,10.511-41.671,10.511-41.671L339.092,304.624z"/>
		</g>
		<g>
			<g>
				<polygon style="fill:#C68467;" points="345.098,112.788 355.985,161.217 406.666,158.589 357.112,100.775 				"/>
				<path style="fill:#AD6D57;" d="M359.12,132.741c5.183-4.152,9.3-9.607,11.934-15.701l-13.942-16.265l-12.013,12.013l5.496,24.45
					C353.694,136.504,356.602,134.758,359.12,132.741z"/>
			</g>
			<path style="fill:#C68467;" d="M337.215,79.001c0,0-6.007,8.259-6.382,22.9c-0.375,14.641,10.887,17.644,17.269,14.641
				c6.382-3.003,11.262-11.262,11.262-11.262l4.13-22.9L337.215,79.001z"/>
			<path style="fill:#363169;" d="M337.215,79.001c0,0-6.757,2.253-7.133,6.382c-2.73-14.561,10.616-20.721,23.328-17.913
				c5.993,1.324,14.856,5.416,15.715,12.282c4.505,8.259-2.628,23.276-9.761,25.528c-1.877-3.003-3.003-0.751-3.003-0.751
				l-2.628-12.013l-3.003,6.757c0,0-5.256-9.761-3.754-19.146L337.215,79.001z"/>
			<path style="fill:#C68467;" d="M353.733,92.516c0,0,6.757-2.628,7.133,2.628s-1.502,7.884-4.505,9.385L353.733,92.516z"/>
			<g>
				<polygon style="fill:#FFFFFF;" points="343.221,96.176 353.076,94.018 352.513,95.144 343.409,97.584 				"/>
				<polygon style="fill:#FFFFFF;" points="347.257,110.723 357.956,103.497 358.519,104.341 348.102,111.85 				"/>
				<path style="fill:#8BBEBE;" d="M329.613,96.458l15.204-0.563c0,0,0,10.136,4.505,15.204c-5.35,7.039-8.447,7.321-8.447,7.321
					S327.079,118.982,329.613,96.458z"/>
			</g>
		</g>
		<g>
			<path style="fill:#AD6D57;" d="M310.467,168.818l5.913-10.699c-2.253,0-7.602,4.787-7.602,4.787l-1.971-2.534l-0.081,0.064
				c-2.162-3.011-4.571-5.844-7.201-8.457c-0.447-0.444-1.169-0.896-1.635-0.473c1.134,3.044,2.735,5.915,4.728,8.48
				c-2.717-2.096-5.449-4.202-8.464-5.843c1.24,3.323,2.919,6.482,4.982,9.368c-2.559-2.104-5.118-4.209-7.677-6.313
				c0.707,3.381,2.216,6.591,4.368,9.293c-1.946-1.801-4.111-3.366-6.43-4.651c1.621,3.226,3.901,6.118,6.659,8.447l0.021-0.011
				c-0.704,4.235,3.973,10.086,3.973,10.086l11.262,25.34l18.865-22.243L310.467,168.818z"/>
			<g>
				<g>
					<path style="fill:#8BBEBE;" d="M353.733,152.582c0,0,54.435-0.751,58.564,1.126c4.129,1.877,22.9,19.146,30.784,67.95
						c7.884,48.804,8.634,59.691,8.634,59.691s11.262,18.02,0.751,24.777c-54.435,3.379-117.88,4.88-117.88,4.88l1.877-9.01
						c0,0-9.01-1.877-11.638-8.635c-2.628-6.757,13.515-14.266,13.515-14.266l-2.252-79.963L353.733,152.582z"/>
					<path style="fill:#7DAFAE;" d="M379.148,309.616c-3.695-3.484-6.513-7.762-5.096-12.358c0.877-2.842,3.241-4.944,5.58-6.781
						c10.215-8.026,22.028-14.009,34.543-17.496c-9.865-5.175-20.373-10.999-25.155-21.059c-4.849-10.201-2.597-22.225,0.122-33.188
						c5.366-21.64,12.182-42.92,20.387-63.65l-6.127-2.268c-16.525-0.691-49.667-0.234-49.667-0.234l-17.644,46.551l2.253,79.963
						c0,0-16.143,7.508-13.515,14.266c2.628,6.757,11.638,8.635,11.638,8.635l-1.877,9.01
						C334.587,311.006,353.315,310.563,379.148,309.616z"/>
				</g>
				<g>
					<path style="fill:#C68467;" d="M323.277,275.342c3.368-2.315,7.119-6.038,10.184-12.013
						c7.508-14.641,11.638-21.774,11.638-21.774l-36.04-27.03l-17.644,30.033l-76.96,25.153c0,0-15.392-0.375-17.269,5.256v0.375
						H323.277z"/>
					<path style="fill:#AD6D57;" d="M306.362,219.114c8.385,16.68,15.855,33.819,22.343,51.325c1.664-1.92,3.289-4.251,4.755-7.111
						c7.508-14.641,11.638-21.774,11.638-21.774l-27.094-20.321l-9.869-5.138L306.362,219.114z"/>
					<path style="fill:#8BBEBE;" d="M298.547,212.648c0,0,29.282-44.299,39.794-54.435c10.512-10.136,33.036-7.884,36.04,13.89
						c3.003,21.774-28.531,75.458-28.531,75.458L298.547,212.648z"/>
				</g>
			</g>
		</g>
	</g>
	<g>
		<path style="fill:#FFFFFF;" d="M77.804,228.415c0,0-5.256-17.269-1.126-19.897c4.13-2.628,5.256,4.13,5.256,4.13
			s-2.252-7.884,4.13-10.887c6.382-3.003,7.508,7.508,7.508,7.508s1.877-5.631,6.007-3.003c4.13,2.628,0.751,16.518,0.751,16.518
			l-4.505,19.146l-16.894-0.751L77.804,228.415z"/>
		<path style="fill:#FFFFFF;" d="M96.2,246.811c0,0,13.89-22.525,19.521-20.272c5.631,2.253-9.761,21.023-9.761,21.023L96.2,246.811
			z"/>
		<path style="fill:#7DAFAE;" d="M82.685,247.186c0,0-5.256-22.525,3.754-33.036c9.01-10.512,10.136,3.754,10.136,3.754
			s2.253-9.01,7.133-8.634c4.88,0.375,1.877,10.887,1.877,10.887s3.379-4.88,7.884-1.502c4.505,3.379-8.259,25.904-13.515,28.156
			C99.954,246.811,82.309,246.811,82.685,247.186z"/>
		<path style="fill:#8BBEBE;" d="M89.818,245.684c0,0-8.634-28.156-15.017-32.661c-6.382-4.505-3.754,9.01-3.754,9.01
			s-7.133-9.385-10.887-7.884c-3.754,1.502,5.631,13.89,5.631,13.89s-7.884-4.13-7.508,1.877
			c0.375,6.007,16.518,20.272,16.518,20.272L89.818,245.684z"/>
		<path style="fill:#AD6D57;" d="M68.044,243.995h41.108l-3.304,26.434c-0.366,2.927-2.828,5.139-5.777,5.191l-21.804,0.383
			c-2.956,0.052-5.497-2.082-5.959-5.002L68.044,243.995z"/>
	</g>
</g>
</svg>
